<svg width="220" height="220" viewBox="0 0 220 220" fill="none" xmlns="http://www.w3.org/2000/svg">
<path fill-rule="evenodd" clip-rule="evenodd" d="M87.9939 158.994C93.9827 162.138 99.968 165.281 105.537 169.033C122.53 180.488 136.55 195.827 146.439 213.778C134.723 217.907 122.39 220.011 109.968 220C80.8027 220 52.8319 208.412 32.2089 187.785C11.5859 167.158 2.06528e-06 139.181 2.06528e-06 110.01C-0.00279766 95.561 2.84095 81.2529 8.36877 67.9031C13.8966 54.5533 22.0001 42.4241 32.2164 32.2078C42.4327 21.9916 54.5614 13.8886 67.9097 8.36227C81.2579 2.83596 95.564 -0.00559038 110.011 8.25703e-06C124.455 -0.00279085 138.759 2.84095 152.105 8.36851C165.451 13.8961 177.577 21.9991 187.791 32.2151C198.005 42.4311 206.107 54.5599 211.633 67.9083C217.16 81.2567 220.003 95.5628 220 110.01C220.018 126.746 216.199 143.264 208.837 158.294C208.737 158.184 208.629 158.079 208.52 157.972C208.374 157.83 208.226 157.685 208.091 157.526C204.086 153.265 201.21 153.67 197.44 157.526C190.814 164.323 184.104 170.908 177.031 177.108C173.091 180.768 168.155 183.177 162.846 184.03C157.537 184.883 152.094 184.143 147.206 181.902C136.214 177.428 129.738 169.075 128.843 157.121C128.203 151.77 129.223 146.351 131.765 141.599C134.306 136.846 138.247 132.989 143.052 130.551C144.601 129.677 146.156 128.815 147.712 127.953C150.822 126.23 153.932 124.507 156.985 122.689C164.535 118.19 168.547 116.788 169.094 114.543C169.627 112.353 166.867 109.361 160.883 101.914C152.681 91.7076 142.221 86.7213 129.098 88.2342C124.223 88.8743 119.402 89.8789 114.676 91.2389C104.756 94.2036 94.0759 93.2345 84.8513 88.5328C78.0929 85.1449 71.2256 81.9626 64.3497 78.7763C62.101 77.7343 59.8513 76.6918 57.6043 75.6416C52.385 73.2552 47.5278 73.8302 44.8223 79.1145C35.5766 97.2685 33.8724 116.701 50.1695 133.044C57.0925 139.709 64.7298 145.59 72.9428 150.58C77.7924 153.637 82.8945 156.316 87.9939 158.994ZM105.648 103.116C106.563 102.551 107.584 102.177 108.648 102.02C110.769 101.6 112.971 102.04 114.768 103.242C116.566 104.445 117.812 106.312 118.234 108.433C118.536 110.567 118.018 112.736 116.784 114.504C115.551 116.271 113.694 117.505 111.588 117.958C110.534 118.162 109.45 118.153 108.399 117.935C107.349 117.716 106.352 117.292 105.466 116.685C104.58 116.079 103.824 115.303 103.24 114.403C102.656 113.502 102.257 112.494 102.065 111.438C101.848 110.385 101.847 109.298 102.065 108.244C102.282 107.19 102.712 106.192 103.328 105.311C103.944 104.429 104.734 103.682 105.648 103.116Z" fill="black"/>
</svg>
