<svg width="288" height="288" viewBox="0 0 288 288" fill="none" xmlns="http://www.w3.org/2000/svg">
<rect width="288" height="288" rx="20" fill="white"/>
<g clip-path="url(#clip0_1_148)">
<path d="M268 0H20C8.9543 0 0 8.9543 0 20V268C0 279.046 8.9543 288 20 288H268C279.046 288 288 279.046 288 268V20C288 8.9543 279.046 0 268 0Z" fill="white"/>
<path d="M288 200.41V0H1.91858e-05V160.56C-0.122329 137.421 6.25394 114.713 18.403 95.0206C30.5521 75.3279 47.986 59.4415 68.7201 49.17C-14.6799 140.02 83.79 290.76 201 247.49C189.995 227.445 174.379 210.306 155.44 197.49C116.92 175.16 58.25 150.95 87.81 96.99C97.04 77.21 135.89 122.94 165.62 110.54C184.13 104.27 204.82 105.47 217.09 122.47C220.75 127.05 227.57 134.95 226.23 136.59C222.14 142.13 209.07 147.05 202.4 151.59C154.99 172.18 195.92 237.7 235.08 206.52C242.95 199.59 250.43 192.23 257.81 184.64C261.81 180.54 264.89 179.93 269.01 183.96V184.05C269.533 184.502 270.031 184.983 270.5 185.49L270.56 185.37L288 200.41Z" fill="black"/>
<path d="M155.56 123.81C156.577 123.176 157.714 122.757 158.9 122.58C160.075 122.343 161.286 122.34 162.463 122.573C163.639 122.805 164.759 123.268 165.756 123.934C166.753 124.6 167.608 125.457 168.273 126.455C168.938 127.453 169.399 128.573 169.63 129.75C169.965 132.13 169.389 134.549 168.017 136.522C166.645 138.495 164.578 139.876 162.23 140.39C161.055 140.615 159.846 140.605 158.675 140.361C157.504 140.116 156.392 139.641 155.406 138.964C154.419 138.287 153.576 137.421 152.926 136.416C152.277 135.411 151.832 134.288 151.62 133.11C151.379 131.933 151.379 130.719 151.62 129.542C151.861 128.365 152.337 127.248 153.02 126.26C153.692 125.28 154.556 124.446 155.56 123.81Z" fill="black"/>
</g>
<defs>
<clipPath id="clip0_1_148">
<rect width="288" height="288" fill="white"/>
</clipPath>
</defs>
</svg>
